<?xml version="1.0" encoding="UTF-8" standalone="no"?>
<!DOCTYPE svg PUBLIC "-//W3C//DTD SVG 1.1//EN" "http://www.w3.org/Graphics/SVG/1.1/DTD/svg11.dtd">
<svg width="100%" height="100%" viewBox="0 0 1080 1080" version="1.1" xmlns="http://www.w3.org/2000/svg" xmlns:xlink="http://www.w3.org/1999/xlink" xml:space="preserve" xmlns:serif="http://www.serif.com/" style="fill-rule:evenodd;clip-rule:evenodd;stroke-linecap:round;stroke-linejoin:round;stroke-miterlimit:1.5;">
    <g id="Extra-Shapes" serif:id="Extra Shapes" transform="matrix(1,0,0,1,-24.4186,129.07)">
        <path d="M564.419,18.14C626.407,18.14 685.061,32.53 737.219,58.15C776.265,77.329 811.67,102.801 842.109,133.24C869.717,160.847 893.239,192.541 911.685,227.33C940.745,282.136 957.209,344.626 957.209,410.93C957.209,472.919 942.819,531.572 917.199,583.73C898.02,622.776 872.548,658.182 842.109,688.621C811.67,719.06 776.265,744.532 737.219,763.711C685.061,789.33 626.407,803.721 564.419,803.721C498.114,803.721 435.624,787.257 380.819,758.197C344.228,738.795 311.063,713.78 282.474,684.301C253.911,654.849 229.917,620.943 211.638,583.73C186.018,531.572 171.628,472.919 171.628,410.93C171.628,344.626 188.092,282.136 217.152,227.33C235.599,192.541 259.12,160.847 286.728,133.24C314.336,105.632 346.029,82.11 380.819,63.664C435.624,34.604 498.114,18.14 564.419,18.14Z" style="fill:none;"/>
        <clipPath id="_clip1">
            <path d="M564.419,18.14C626.407,18.14 685.061,32.53 737.219,58.15C776.265,77.329 811.67,102.801 842.109,133.24C869.717,160.847 893.239,192.541 911.685,227.33C940.745,282.136 957.209,344.626 957.209,410.93C957.209,472.919 942.819,531.572 917.199,583.73C898.02,622.776 872.548,658.182 842.109,688.621C811.67,719.06 776.265,744.532 737.219,763.711C685.061,789.33 626.407,803.721 564.419,803.721C498.114,803.721 435.624,787.257 380.819,758.197C344.228,738.795 311.063,713.78 282.474,684.301C253.911,654.849 229.917,620.943 211.638,583.73C186.018,531.572 171.628,472.919 171.628,410.93C171.628,344.626 188.092,282.136 217.152,227.33C235.599,192.541 259.12,160.847 286.728,133.24C314.336,105.632 346.029,82.11 380.819,63.664C435.624,34.604 498.114,18.14 564.419,18.14Z"/>
        </clipPath>
        <g clip-path="url(#_clip1)">
            <g transform="matrix(1,0,0,1,34.0753,-129.07)">
                <g id="N">
                    <path d="M312.464,855.017C312.464,864.215 304.996,871.684 295.798,871.684C286.599,871.684 279.131,864.215 279.131,855.017L279.131,224.983C279.131,216.803 285.067,209.832 293.143,208.529C301.218,207.226 309.045,211.976 311.618,219.741L513.677,829.508L513.677,147.326C513.677,138.127 521.145,130.659 530.343,130.659C539.542,130.659 547.01,138.127 547.01,147.326L547.01,932.791C547.01,940.971 541.074,947.941 532.999,949.245C524.923,950.548 517.096,945.798 514.523,938.033L312.464,328.265L312.464,855.017Z"/>
                </g>
            </g>
            <g id="B" transform="matrix(1,0,0,1,14.762,-129.07)">
                <path d="M697.692,545.179C760.835,577.466 821.009,634.943 821.009,733.661C821.009,835.986 756.57,892.599 690.982,922.837C629.873,951.01 568.738,955.249 568.738,955.249C559.51,955.904 550.426,952.695 543.657,946.39C536.888,940.085 533.044,931.25 533.044,922L533.043,540.068L532.813,158.132C532.807,148.9 536.631,140.079 543.372,133.771C550.114,127.464 559.169,124.234 568.381,124.853C568.381,124.853 630.757,128.93 693.104,158.449C759.385,189.832 824.865,248.681 824.865,356.4C824.865,462.007 762.512,516.971 697.692,545.179ZM566.377,540.058C566.377,540.058 791.532,539.546 791.532,356.4C791.532,173.254 566.146,158.112 566.146,158.112L566.377,540.058ZM566.377,540.058L566.377,922C566.377,922 787.676,906.289 787.676,733.661C787.676,561.033 566.377,540.058 566.377,540.058Z"/>
            </g>
        </g>
        <path d="M564.419,18.14C626.407,18.14 685.061,32.53 737.219,58.15C776.265,77.329 811.67,102.801 842.109,133.24C869.717,160.847 893.239,192.541 911.685,227.33C940.745,282.136 957.209,344.626 957.209,410.93C957.209,472.919 942.819,531.572 917.199,583.73C898.02,622.776 872.548,658.182 842.109,688.621C811.67,719.06 776.265,744.532 737.219,763.711C685.061,789.33 626.407,803.721 564.419,803.721C498.114,803.721 435.624,787.257 380.819,758.197C344.228,738.795 311.063,713.78 282.474,684.301C253.911,654.849 229.917,620.943 211.638,583.73C186.018,531.572 171.628,472.919 171.628,410.93C171.628,344.626 188.092,282.136 217.152,227.33C235.599,192.541 259.12,160.847 286.728,133.24C314.336,105.632 346.029,82.11 380.819,63.664C435.624,34.604 498.114,18.14 564.419,18.14Z" style="fill:none;stroke:black;stroke-width:20.83px;"/>
    </g>
</svg>
