<?xml version="1.0" encoding="UTF-8" standalone="no"?><!DOCTYPE svg PUBLIC "-//W3C//DTD SVG 1.1//EN" "http://www.w3.org/Graphics/SVG/1.1/DTD/svg11.dtd"><svg width="100%" height="100%" viewBox="0 0 1080 1080" version="1.1" xmlns="http://www.w3.org/2000/svg" xmlns:xlink="http://www.w3.org/1999/xlink" xml:space="preserve" xmlns:serif="http://www.serif.com/" style="fill-rule:evenodd;clip-rule:evenodd;stroke-linejoin:round;stroke-miterlimit:2;"><g><g id="Black"><path id="Extra-Shapes" serif:id="Extra Shapes" d="M535.493,284.26c40.804,0.189 68.275,6.402 81.096,9.767c19.837,5.206 39.337,12.918 58.283,24.243c15.109,9.03 32.862,22.147 51.108,41.665c29.758,31.832 53.13,72.475 68.817,115.762c16.908,46.657 25.325,97.565 21.092,146.975c-3.265,38.112 -13.92,73.784 -32.038,105.395c-19.43,33.9 -46.512,61.505 -78.829,82.325c-47.555,30.636 -105.669,46.091 -165.022,46.091c-63.219,-0 -125.344,-17.534 -175.131,-52.358c-30.096,-21.052 -55.257,-48.13 -73.55,-80.711c-17.125,-30.5 -27.537,-64.588 -31.305,-100.823c-5.13,-49.333 2.319,-100.185 18.415,-146.894c14.987,-43.492 37.742,-84.152 66.942,-115.996c18.105,-19.745 35.774,-32.929 50.675,-41.93c17.414,-10.519 35.123,-17.783 52.755,-22.806c14.602,-4.16 43.303,-10.906 86.692,-10.705Z" style="fill:none;"/><clipPath id="_clip1"><path id="Extra-Shapes1" serif:id="Extra Shapes" d="M535.493,284.26c40.804,0.189 68.275,6.402 81.096,9.767c19.837,5.206 39.337,12.918 58.283,24.243c15.109,9.03 32.862,22.147 51.108,41.665c29.758,31.832 53.13,72.475 68.817,115.762c16.908,46.657 25.325,97.565 21.092,146.975c-3.265,38.112 -13.92,73.784 -32.038,105.395c-19.43,33.9 -46.512,61.505 -78.829,82.325c-47.555,30.636 -105.669,46.091 -165.022,46.091c-63.219,-0 -125.344,-17.534 -175.131,-52.358c-30.096,-21.052 -55.257,-48.13 -73.55,-80.711c-17.125,-30.5 -27.537,-64.588 -31.305,-100.823c-5.13,-49.333 2.319,-100.185 18.415,-146.894c14.987,-43.492 37.742,-84.152 66.942,-115.996c18.105,-19.745 35.774,-32.929 50.675,-41.93c17.414,-10.519 35.123,-17.783 52.755,-22.806c14.602,-4.16 43.303,-10.906 86.692,-10.705Z"/></clipPath><g clip-path="url(#_clip1)"><g id="N"><path d="M339.11,768.403c-1.949,10.09 -10.596,18.139 -19.108,18.064c-8.535,-0.075 -13.778,-8.291 -11.522,-18.413c50.698,-227.383 82.843,-369.338 104.952,-465.057c0.841,-3.64 4.399,-6.185 8.446,-5.962c3.985,0.22 7.339,3.066 7.88,6.713c17.048,115.041 44.014,258.147 94.415,438.943c1.252,-152.828 2.504,-305.656 3.756,-458.484c0.256,-26.29 4.327,-36.776 7.271,-36.765c4.382,0.017 7.434,19.061 7.855,36.835c4.537,190.735 9.074,381.47 13.612,572.206c0.177,7.757 -5.756,14.417 -13.878,15.663c-8.15,1.251 -16.091,-3.318 -18.639,-10.704c-3.929,-11.387 -24.522,-88.504 -41.749,-162.204c-31.873,-136.357 -50.556,-249.179 -62.8,-342.695c-18.567,93.107 -44.006,222.964 -80.491,411.86Z" style="stroke:#000;stroke-width:33.33px;"/></g><g id="B"><path d="M634.852,494.461c33.136,15.457 96.748,53.34 121.959,150.745c24.994,96.569 -11.439,161.066 -77.113,199.634c-16.124,9.469 -23.762,12.13 -25.951,12.892c-6.535,2.276 -20.742,7.062 -40.802,11.641c-28.927,6.603 -50.821,8.384 -53.447,8.558c-9.368,0.635 -18.63,-2.49 -25.47,-8.522c-7.945,-7.007 -10.622,-15.515 -10.55,-25.485c0.887,-116.938 1.773,-233.876 2.66,-350.813c0.556,-68.238 1.112,-136.476 1.669,-204.714c0.022,-2.393 0.865,-4.172 0.872,-4.214c0.061,-0.396 0.97,-16.24 3.812,-29.902c3.254,-15.651 7.35,-20.715 10.795,-19.599c2.201,0.692 10.786,4.92 22.123,17.181c8.971,9.703 16.265,20.038 22.953,29.543c1.729,0.354 6.8,1.351 12.756,2.892c33.128,8.573 70.562,26.772 85.567,83.165c14.291,53.709 -3.016,99.678 -51.833,126.998Zm-86.802,-1.323c7.085,-0.047 51.923,-2.366 86.18,-26.515c32.215,-22.709 43.623,-56.748 34.262,-96.29c-13.3,-56.181 -55.775,-74.592 -115.855,-81.057c-3.586,-0.386 -7.991,-0.743 -9.564,-0.815c1.659,68.225 3.318,136.451 4.977,204.677Zm0,0c2.79,116.929 5.581,233.858 8.371,350.787c21.789,-1.815 212.228,-28.988 173.56,-197.743c-7.915,-34.543 -34.674,-122.131 -160.889,-149.468c-9.918,-2.148 -18.365,-3.316 -21.042,-3.576Z" style="stroke:#000;stroke-width:20.83px;"/></g></g><path id="Extra-Shapes2" serif:id="Extra Shapes" d="M535.493,284.26c40.804,0.189 68.275,6.402 81.096,9.767c19.837,5.206 39.337,12.918 58.283,24.243c15.109,9.03 32.862,22.147 51.108,41.665c29.758,31.832 53.13,72.475 68.817,115.762c16.908,46.657 25.325,97.565 21.092,146.975c-3.265,38.112 -13.92,73.784 -32.038,105.395c-19.43,33.9 -46.512,61.505 -78.829,82.325c-47.555,30.636 -105.669,46.091 -165.022,46.091c-63.219,-0 -125.344,-17.534 -175.131,-52.358c-30.096,-21.052 -55.257,-48.13 -73.55,-80.711c-17.125,-30.5 -27.537,-64.588 -31.305,-100.823c-5.13,-49.333 2.319,-100.185 18.415,-146.894c14.987,-43.492 37.742,-84.152 66.942,-115.996c18.105,-19.745 35.774,-32.929 50.675,-41.93c17.414,-10.519 35.123,-17.783 52.755,-22.806c14.602,-4.16 43.303,-10.906 86.692,-10.705Z" style="fill:none;stroke:#000;stroke-width:20.83px;stroke-linecap:round;stroke-miterlimit:1.5;"/></g></g></svg>